<svg width="44" height="44" viewBox="0 0 44 44" fill="none" xmlns="http://www.w3.org/2000/svg">
<path d="M29.281 28.2194C29.3507 28.289 29.406 28.3718 29.4437 28.4628C29.4814 28.5539 29.5008 28.6514 29.5008 28.75C29.5008 28.8485 29.4814 28.9461 29.4437 29.0372C29.406 29.1282 29.3507 29.2109 29.281 29.2806C29.2114 29.3503 29.1286 29.4056 29.0376 29.4433C28.9465 29.481 28.849 29.5004 28.7504 29.5004C28.6519 29.5004 28.5543 29.481 28.4632 29.4433C28.3722 29.4056 28.2895 29.3503 28.2198 29.2806L22.0004 23.0603L15.781 29.2806C15.6403 29.4213 15.4494 29.5004 15.2504 29.5004C15.0514 29.5004 14.8605 29.4213 14.7198 29.2806C14.5791 29.1399 14.5 28.949 14.5 28.75C14.5 28.551 14.5791 28.3601 14.7198 28.2194L20.9401 22L14.7198 15.7806C14.5791 15.6399 14.5 15.449 14.5 15.25C14.5 15.051 14.5791 14.8601 14.7198 14.7194C14.8605 14.5786 15.0514 14.4996 15.2504 14.4996C15.4494 14.4996 15.6403 14.5786 15.781 14.7194L22.0004 20.9397L28.2198 14.7194C28.3605 14.5786 28.5514 14.4996 28.7504 14.4996C28.9494 14.4996 29.1403 14.5786 29.281 14.7194C29.4218 14.8601 29.5008 15.051 29.5008 15.25C29.5008 15.449 29.4218 15.6399 29.281 15.7806L23.0607 22L29.281 28.2194Z" fill="#003CFF"/>
<circle cx="22" cy="22" r="21.5" stroke="#003CFF"/>
</svg>
