<svg width="24" height="24" viewBox="0 0 24 24" fill="none" xmlns="http://www.w3.org/2000/svg">
<path d="M14.2753 3.55594C14.3008 3.46076 14.3447 3.37152 14.4047 3.29334C14.4647 3.21515 14.5394 3.14954 14.6248 3.10027C14.7101 3.05099 14.8043 3.01901 14.902 3.00615C14.9996 2.99329 15.0989 2.9998 15.1941 3.02531C16.5844 3.38808 17.853 4.11492 18.869 5.13097C19.8851 6.14703 20.6119 7.41557 20.9747 8.80594C21.0002 8.90111 21.0067 9.00037 20.9939 9.09805C20.981 9.19574 20.949 9.28993 20.8997 9.37526C20.8505 9.46058 20.7849 9.53535 20.7067 9.59531C20.6285 9.65527 20.5393 9.69923 20.4441 9.72469C20.3807 9.74133 20.3155 9.74984 20.25 9.75C20.0847 9.75 19.9241 9.6954 19.793 9.5947C19.662 9.49399 19.5679 9.35283 19.5253 9.19313C19.2295 8.05811 18.6363 7.02254 17.8069 6.19315C16.9775 5.36375 15.9419 4.77055 14.8069 4.47469C14.7116 4.44933 14.6223 4.40544 14.544 4.34553C14.4657 4.28561 14.4 4.21085 14.3506 4.12552C14.3013 4.04019 14.2692 3.94596 14.2563 3.84823C14.2433 3.75049 14.2498 3.65117 14.2753 3.55594ZM14.0569 7.47469C15.3497 7.81969 16.1803 8.65031 16.5253 9.94313C16.5679 10.1028 16.662 10.244 16.793 10.3447C16.9241 10.4454 17.0847 10.5 17.25 10.5C17.3155 10.4998 17.3807 10.4913 17.4441 10.4747C17.5393 10.4492 17.6285 10.4053 17.7067 10.3453C17.7849 10.2854 17.8505 10.2106 17.8997 10.1253C17.949 10.0399 17.981 9.94574 17.9939 9.84805C18.0067 9.75037 18.0002 9.65111 17.9747 9.55594C17.4947 7.75969 16.2403 6.50531 14.4441 6.02531C14.3489 5.99989 14.2497 5.99346 14.152 6.00639C14.0544 6.01932 13.9602 6.05136 13.8749 6.10068C13.7897 6.14999 13.7149 6.21562 13.655 6.29382C13.5951 6.37201 13.5512 6.46124 13.5258 6.55641C13.5004 6.65157 13.4939 6.75082 13.5069 6.84847C13.5198 6.94612 13.5518 7.04027 13.6012 7.12554C13.6505 7.21081 13.7161 7.28553 13.7943 7.34544C13.8725 7.40535 13.9617 7.44927 14.0569 7.47469ZM21.7388 16.4138C21.5716 17.6841 20.9477 18.8501 19.9837 19.6941C19.0196 20.5381 17.7813 21.0023 16.5 21C9.05626 21 3.00001 14.9438 3.00001 7.5C2.99771 6.21871 3.4619 4.9804 4.30588 4.01634C5.14986 3.05228 6.31592 2.42841 7.58626 2.26125C7.9075 2.22203 8.2328 2.28775 8.51362 2.4486C8.79444 2.60945 9.0157 2.85681 9.14438 3.15375L11.1244 7.57406V7.58531C11.2229 7.81261 11.2636 8.06078 11.2428 8.30764C11.222 8.55449 11.1404 8.79236 11.0053 9C10.9884 9.02531 10.9706 9.04875 10.9519 9.07219L9.00001 11.3859C9.7022 12.8128 11.1947 14.2922 12.6403 14.9963L14.9222 13.0547C14.9446 13.0359 14.9681 13.0183 14.9925 13.0022C15.2 12.8638 15.4387 12.7794 15.687 12.7564C15.9353 12.7335 16.1854 12.7729 16.4147 12.8709L16.4269 12.8766L20.8434 14.8556C21.1409 14.9838 21.3889 15.2049 21.5503 15.4858C21.7116 15.7666 21.7778 16.0922 21.7388 16.4138ZM20.25 16.2263C20.25 16.2263 20.2434 16.2263 20.2397 16.2263L15.8334 14.2528L13.5506 16.1944C13.5285 16.2131 13.5053 16.2307 13.4813 16.2469C13.2654 16.3909 13.0159 16.4764 12.7571 16.4952C12.4983 16.5139 12.239 16.4652 12.0047 16.3538C10.2488 15.5053 8.49845 13.7681 7.64907 12.0309C7.5366 11.7983 7.48613 11.5406 7.50255 11.2827C7.51898 11.0248 7.60174 10.7755 7.74282 10.5591C7.75872 10.5336 7.77659 10.5095 7.79626 10.4869L9.75001 8.17031L7.78126 3.76406C7.78089 3.76032 7.78089 3.75655 7.78126 3.75281C6.87212 3.87141 6.03739 4.31734 5.43339 5.00711C4.8294 5.69688 4.49755 6.58317 4.50001 7.5C4.50348 10.6815 5.76888 13.7318 8.01856 15.9814C10.2682 18.2311 13.3185 19.4965 16.5 19.5C17.4163 19.5031 18.3023 19.1725 18.9925 18.5698C19.6827 17.9671 20.1297 17.1337 20.25 16.2253V16.2263Z" fill="white"/>
</svg>
