<svg width="112" height="63" viewBox="0 0 112 63" fill="none" xmlns="http://www.w3.org/2000/svg">
<path fill-rule="evenodd" clip-rule="evenodd" d="M55.317 12.1109L53.353 23.984C46.7029 22.9136 42.1958 16.7302 43.2857 10.1676C44.3704 3.61535 50.6361 -0.832489 57.2757 0.243099C60.535 0.762706 63.4414 2.57094 65.3317 5.25212L55.317 12.1109Z" fill="#1A629C"/>
<path fill-rule="evenodd" clip-rule="evenodd" d="M44.1604 16.9434C43.2337 14.8858 42.8914 12.5475 43.2916 10.1625C43.5601 8.51019 44.1709 6.98255 45.0344 5.64716L55.3229 12.1059L44.1604 16.9434Z" fill="#3194BF"/>
<path fill-rule="evenodd" clip-rule="evenodd" d="M45.0287 5.65279C47.1032 2.44681 50.6415 0.337209 54.5748 0.108582L55.3172 12.1167L45.0287 5.65279Z" fill="#66BCDB"/>
<path fill-rule="evenodd" clip-rule="evenodd" d="M55.3182 12.111L54.5758 0.102831C55.4656 0.0456737 56.3713 0.0820474 57.2769 0.23793C60.5362 0.757537 63.4426 2.56577 65.3329 5.24695L55.3182 12.111Z" fill="#8CD5EA"/>
<path fill-rule="evenodd" clip-rule="evenodd" d="M53.3539 23.9841L55.3179 12.1162C61.9575 13.1866 66.4646 19.3699 65.3852 25.9222C64.3006 32.4848 58.0348 36.9223 51.3847 35.8571C48.1254 35.3375 45.219 33.5292 43.3392 30.8429L53.3539 23.9841Z" fill="#3194BF"/>
<path fill-rule="evenodd" clip-rule="evenodd" d="M64.5114 19.1414C65.4276 21.2042 65.7698 23.5372 65.3802 25.9222C65.1011 27.585 64.5009 29.1126 63.6373 30.4428L53.3541 23.9841L64.5114 19.1414Z" fill="#66BCDB"/>
<path fill-rule="evenodd" clip-rule="evenodd" d="M63.6426 30.4426C61.5681 33.6486 58.0245 35.7582 54.0965 35.9868L53.3541 23.9839L63.6426 30.4426Z" fill="#8CD5EA"/>
<path fill-rule="evenodd" clip-rule="evenodd" d="M53.3539 23.9839L54.0963 35.992C53.2065 36.0492 52.3009 36.0024 51.3847 35.8569C48.1254 35.3373 45.219 33.5291 43.3392 30.8427L53.3539 23.9839Z" fill="#66BCDB"/>
<path d="M30.281 40.1438V40.5906C30.1441 40.5906 30.0125 40.6114 29.8914 40.653C29.7703 40.6894 29.7176 40.7881 29.7176 40.9544C29.7176 41.0531 29.8282 41.2921 30.0441 41.6558C30.2652 42.03 30.518 42.4405 30.8128 42.9185C31.1077 43.3861 31.4078 43.8694 31.7185 44.363C32.0344 44.8566 32.2924 45.2671 32.4872 45.6153L35.1251 41.6507C35.2462 41.448 35.3357 41.2921 35.42 41.183C35.4937 41.0635 35.5306 40.9544 35.5306 40.8557C35.5306 40.7465 35.4569 40.6738 35.32 40.6374C35.1725 40.6114 35.0409 40.5906 34.9198 40.5906V40.1438H38.8635V40.5906C38.7424 40.5906 38.6318 40.601 38.5213 40.627C38.4212 40.653 38.3107 40.7102 38.1948 40.7985C38.0843 40.892 37.9632 41.0167 37.8315 41.1934C37.6999 41.3701 37.5525 41.5935 37.3682 41.8949L33.5455 47.834V52.2195C33.5455 52.5208 33.714 52.6663 34.0615 52.6663V53.1132H30.4969V52.6663C30.6338 52.6663 30.7444 52.63 30.8286 52.5572C30.9234 52.4845 30.9655 52.3754 30.9655 52.2195V47.834L26.6111 41.183C26.511 41.0167 26.3531 40.8712 26.1319 40.7621C26.0213 40.6998 25.9213 40.653 25.8265 40.627C25.6528 40.6842 25.4632 40.7933 25.2895 40.9544L20.1031 45.4698L24.8366 51.466C25.0315 51.7103 25.2631 51.9493 25.5211 52.1883C25.7897 52.4273 26.0477 52.5884 26.3004 52.6715V53.1184H22.1355V52.6715C22.3303 52.6715 22.4304 52.6144 22.4304 52.5001C22.4304 52.4169 22.3198 52.2351 22.1145 51.9597L18.255 47.0961L16.3647 48.7069V52.2247C16.3647 52.3805 16.4121 52.4897 16.5016 52.5624C16.5858 52.6352 16.6964 52.6715 16.8175 52.6715V53.1184H13.3003V52.6715C13.632 52.6715 13.8005 52.526 13.8005 52.2247V41.0323C13.8005 40.7413 13.632 40.5959 13.3003 40.5959V40.149H16.8175V40.5959C16.6964 40.5959 16.5858 40.6322 16.5016 40.705C16.4068 40.7777 16.3647 40.8868 16.3647 41.0323V45.7192L21.0298 41.6974C21.2404 41.5052 21.3984 41.3389 21.5195 41.2246C21.6406 41.0947 21.7038 40.9959 21.7038 40.9128C21.7038 40.7933 21.6669 40.7102 21.6037 40.6686C21.5405 40.6114 21.4563 40.5959 21.3615 40.5959V40.149H25.5738H26.0898H30.281V40.1438ZM46.0033 50.9932C46.7142 50.9932 47.3249 50.9308 47.8567 50.8009C48.3885 50.671 48.8203 50.4372 49.1626 50.0995C49.5048 49.7617 49.7628 49.3149 49.9418 48.7537C50.1156 48.1977 50.1998 47.4858 50.1998 46.6337C50.1998 45.7763 50.1156 45.0697 49.9418 44.5137C49.7681 43.9577 49.5048 43.5108 49.1626 43.1679C48.8203 42.825 48.3833 42.5911 47.8567 42.4664C47.3302 42.3313 46.7194 42.2638 46.0033 42.2638H42.5124V50.988H46.0033V50.9932ZM46.909 40.1438C47.7356 40.1438 48.4991 40.2789 49.2152 40.5387C49.926 40.8037 50.5473 41.2038 51.0739 41.7338C51.6004 42.2742 52.0111 42.9393 52.3165 43.7551C52.6114 44.576 52.7693 45.5269 52.7693 46.6337C52.7693 47.7301 52.6114 48.6913 52.3165 49.5019C52.0111 50.3177 51.6057 50.9932 51.0739 51.5284C50.5473 52.0584 49.926 52.4585 49.2152 52.7183C48.5044 52.9833 47.7356 53.1184 46.909 53.1184H39.4269V52.6715C39.7692 52.6715 39.9429 52.526 39.9429 52.2247V41.0323C39.9429 40.7413 39.7692 40.5959 39.4269 40.5959V40.149H46.909V40.1438ZM65.3008 42.8146C65.3008 42.6327 65.2377 42.4924 65.106 42.4041C64.9744 42.3106 64.7532 42.269 64.4373 42.269H57.1448V45.3295H61.5624C61.8573 45.3295 62.089 45.2827 62.2575 45.1944C62.426 45.1008 62.5049 44.8722 62.5049 44.4929H62.9104V48.338H62.5049C62.5049 47.9639 62.4207 47.7145 62.2575 47.6054C62.089 47.5066 61.8573 47.4495 61.5624 47.4495H57.1448V50.8477H64.6743C64.8954 50.8477 65.0797 50.7905 65.2219 50.6762C65.3693 50.5671 65.4325 50.4112 65.4325 50.2086H65.8379V53.5912H65.4325C65.4325 53.347 65.3693 53.2067 65.2219 53.1704C65.085 53.134 64.8954 53.1236 64.6743 53.1236H54.1646V52.6767C54.2752 52.6767 54.37 52.6403 54.4542 52.5676C54.5385 52.4949 54.5753 52.3857 54.5753 52.2299V41.0375C54.5753 40.892 54.5385 40.7829 54.4542 40.7102C54.37 40.6374 54.2805 40.601 54.1646 40.601V40.1542H64.4426C64.7585 40.1542 64.9796 40.097 65.1113 39.9983C65.2429 39.8892 65.3061 39.7437 65.3061 39.5618H65.7115V42.825H65.3008V42.8146ZM79.9017 51.3413C79.8543 51.3413 79.8069 51.3413 79.77 51.3309C79.7332 51.3205 79.6963 51.3205 79.6489 51.3205C79.5541 51.3205 79.3435 51.4141 79.0118 51.6115C78.6696 51.8142 78.2431 52.0324 77.7271 52.2766C77.2111 52.5208 76.6161 52.7339 75.9579 52.9157C75.2997 53.0976 74.6047 53.1911 73.8833 53.1911C72.9408 53.1911 72.03 53.056 71.1612 52.7962C70.2819 52.5312 69.5131 52.1207 68.8444 51.57C68.1757 51.0192 67.6492 50.3385 67.2543 49.5123C66.8646 48.6913 66.6698 47.7197 66.6698 46.6233C66.6698 45.5373 66.8646 44.576 67.2543 43.7447C67.6544 42.9237 68.181 42.2274 68.8444 41.661C69.5131 41.1051 70.2819 40.6842 71.1612 40.4088C72.03 40.123 72.9408 39.9879 73.8833 39.9879C74.6521 39.9879 75.3471 40.0503 75.9684 40.1906C76.5898 40.3205 77.1373 40.4556 77.606 40.601C78.0693 40.7569 78.4379 40.892 78.7064 41.0219C78.9749 41.157 79.1434 41.2246 79.1961 41.2246C79.2803 41.2246 79.333 41.1778 79.3909 41.0947C79.4488 41.0115 79.4857 40.9492 79.512 40.9024L79.8543 41.1934L78.0956 44.1811L77.8745 44.0097C77.8745 43.9525 77.864 43.9109 77.864 43.8642C77.8534 43.807 77.8429 43.7551 77.8271 43.6927C77.8008 43.5108 77.6428 43.329 77.3743 43.1367C77.1057 42.9445 76.774 42.7782 76.3739 42.6327C75.9737 42.4872 75.5577 42.3573 75.1154 42.2586C74.6731 42.1599 74.2625 42.1131 73.8833 42.1131C73.2515 42.1131 72.6513 42.2118 72.0668 42.4041C71.4929 42.6067 70.9822 42.8977 70.5557 43.2718C70.1292 43.6459 69.7869 44.1136 69.5289 44.6592C69.2814 45.2152 69.1498 45.8387 69.1498 46.5505C69.1498 47.252 69.2814 47.8859 69.5289 48.4315C69.7869 48.9823 70.1292 49.4448 70.5557 49.8293C70.9822 50.2034 71.4929 50.4944 72.0668 50.6866C72.6513 50.8893 73.2515 50.9776 73.8833 50.9776C74.3625 50.9776 74.8627 50.9204 75.3945 50.7957C75.921 50.6762 76.4055 50.5204 76.8372 50.3281C77.2742 50.1358 77.6323 49.928 77.9324 49.689C78.2273 49.45 78.3694 49.2213 78.3694 49.0135C78.3694 48.894 78.3431 48.7953 78.2852 48.7121L78.6011 48.5199L80.0807 51.1335L79.9017 51.3413ZM87.7891 42.2638C87.2152 42.2638 86.6413 42.3625 86.0779 42.5652C85.504 42.7574 84.9827 43.038 84.5299 43.4173C84.0665 43.781 83.698 44.2383 83.4084 44.7787C83.1293 45.3295 82.9819 45.9374 82.9819 46.6337C82.9819 47.3196 83.1293 47.9379 83.4084 48.4783C83.698 49.0291 84.0665 49.4811 84.5299 49.8501C84.9827 50.2242 85.504 50.51 86.0779 50.7022C86.6413 50.9049 87.2152 50.9932 87.7891 50.9932C88.3525 50.9932 88.9265 50.8997 89.5004 50.7022C90.0638 50.51 90.585 50.2294 91.0379 49.8501C91.5012 49.4863 91.8698 49.0291 92.1594 48.4783C92.449 47.9379 92.5859 47.3196 92.5859 46.6337C92.5859 45.9374 92.449 45.3295 92.1594 44.7787C91.8698 44.2383 91.5012 43.781 91.0379 43.4173C90.585 43.0432 90.0638 42.7574 89.5004 42.5652C88.9317 42.3677 88.3578 42.2638 87.7891 42.2638ZM87.7891 39.9983C88.6158 39.9983 89.4583 40.1334 90.306 40.4088C91.1695 40.6738 91.9435 41.0843 92.6491 41.6247C93.3599 42.1651 93.9338 42.8561 94.3919 43.6823C94.8342 44.5137 95.0658 45.5009 95.0658 46.6337C95.0658 47.7664 94.8342 48.7537 94.3919 49.5747C93.9391 50.406 93.3651 51.0919 92.6491 51.6375C91.9435 52.1779 91.1695 52.5676 90.306 52.817C89.453 53.0612 88.6105 53.1911 87.7891 53.1911C86.9572 53.1911 86.12 53.0612 85.2618 52.817C84.4088 52.5728 83.6242 52.1779 82.9187 51.6375C82.2131 51.0867 81.6339 50.406 81.1864 49.5747C80.7336 48.7537 80.5124 47.7664 80.5124 46.6337C80.5124 45.5009 80.7336 44.5137 81.1864 43.6823C81.6287 42.8613 82.2131 42.1651 82.9187 41.6247C83.6242 41.0843 84.4088 40.6738 85.2618 40.4088C86.1253 40.1386 86.9572 39.9983 87.7891 39.9983ZM102.774 45.9218C103.322 45.9218 103.764 45.8751 104.128 45.7867C104.491 45.6932 104.775 45.5685 104.991 45.4022C105.196 45.2359 105.354 45.0437 105.433 44.8255C105.528 44.5968 105.57 44.3578 105.57 44.0928C105.57 43.8278 105.523 43.5888 105.433 43.3602C105.349 43.1419 105.191 42.9497 104.991 42.7834C104.78 42.6171 104.491 42.4924 104.128 42.3989C103.764 42.3054 103.322 42.2638 102.774 42.2638H98.878V45.9166H102.774V45.9218ZM103.354 40.1438C104.075 40.1438 104.733 40.2165 105.317 40.3516C105.902 40.4867 106.413 40.7154 106.829 41.0167C107.255 41.3181 107.576 41.713 107.803 42.1962C108.024 42.6899 108.134 43.2822 108.134 43.9889C108.134 45.0749 107.845 45.9062 107.266 46.483C106.671 47.0598 105.886 47.4443 104.896 47.6417L107.897 52.3182C107.998 52.4845 108.119 52.5832 108.266 52.6196C108.403 52.6455 108.535 52.6663 108.656 52.6663V53.1132H104.443V52.6663C104.58 52.6663 104.691 52.6404 104.796 52.5936C104.896 52.5468 104.944 52.4741 104.944 52.3909C104.944 52.3078 104.917 52.2195 104.849 52.1052C104.791 52.0064 104.701 51.8609 104.58 51.6739L102.1 47.8288H98.878V52.2143C98.878 52.3702 98.9253 52.4793 99.0254 52.552C99.1202 52.6248 99.3044 52.6611 99.5519 52.6611V53.108H95.6556V52.6611C96.0926 52.6611 96.3137 52.5156 96.3137 52.2143V41.0219C96.3137 40.7309 96.0926 40.5855 95.6556 40.5855V40.1386H103.354V40.1438ZM1.25316 49.0447L1.4743 49.1746C1.4743 49.3201 1.51115 49.45 1.56907 49.5695C1.66911 49.7721 1.885 49.9644 2.19039 50.1462C2.49578 50.3385 2.84855 50.51 3.24346 50.6555C3.64362 50.8009 4.05958 50.9204 4.49134 51.014C4.92836 51.1075 5.32326 51.1491 5.66551 51.1491C5.92351 51.1491 6.24997 51.1231 6.6554 51.0867C7.06083 51.0503 7.46099 50.9568 7.85063 50.8321C8.24026 50.697 8.58252 50.51 8.86685 50.2813C9.14591 50.0527 9.29334 49.7513 9.29334 49.3668C9.29334 48.9927 9.1617 48.7069 8.89317 48.5355C8.63517 48.3536 8.29292 48.2237 7.8559 48.1354C7.4294 48.0626 6.93973 48.0054 6.39213 47.9795C5.84454 47.9535 5.28115 47.9171 4.71775 47.8704C4.14383 47.8132 3.5857 47.7353 3.03284 47.6261C2.48524 47.5066 2.0061 47.3144 1.56907 47.039C1.14258 46.774 0.80033 46.3999 0.531797 45.9322C0.273795 45.4646 0.142167 44.8514 0.142167 44.098C0.142167 43.5888 0.242206 43.0848 0.468616 42.5911C0.68976 42.0975 1.02675 41.6662 1.46904 41.2869C1.92186 40.9128 2.49578 40.601 3.18027 40.362C3.8753 40.123 4.6809 40.0035 5.61286 40.0035C6.40793 40.0035 7.10295 40.0659 7.6874 40.2061C8.27186 40.336 8.7826 40.4711 9.20382 40.6166C9.64085 40.7725 9.98836 40.9076 10.2885 41.0375C10.5833 41.1726 10.8256 41.2402 11.0204 41.2402C11.231 41.2402 11.3837 41.1934 11.4732 41.0947L11.7417 41.2869L10.1884 44.3734L9.96731 44.2747C9.94098 44.046 9.87253 43.8538 9.78302 43.7083C9.66191 43.5056 9.46709 43.3134 9.18803 43.1211C8.90897 42.9393 8.58779 42.7626 8.20868 42.6171C7.82958 42.4716 7.42941 42.3521 6.99765 42.2586C6.56063 42.1651 6.11834 42.1235 5.68131 42.1235C5.35486 42.1235 5.01261 42.1495 4.6651 42.2066C4.31232 42.269 3.99113 42.3521 3.70154 42.4716C3.41194 42.5808 3.18554 42.7366 2.99598 42.9289C2.80117 43.1107 2.70639 43.3498 2.70639 43.6304C2.70639 44.0253 2.83803 44.3162 3.10656 44.5189C3.36456 44.7111 3.7068 44.867 4.14383 44.9554C4.57032 45.0541 5.06 45.1216 5.6076 45.158C6.1552 45.1944 6.71858 45.2307 7.28198 45.2775C7.8559 45.3347 8.41403 45.4126 8.96689 45.5425C9.51449 45.662 9.99364 45.8647 10.4307 46.1349C10.8572 46.3999 11.1994 46.7636 11.4679 47.2312C11.7259 47.6885 11.8576 48.2912 11.8576 49.0291C11.8576 49.8812 11.6522 50.5827 11.2363 51.1231C10.8308 51.6635 10.3095 52.0896 9.69877 52.4013C9.07746 52.7131 8.41403 52.9209 7.69794 53.0301C6.98712 53.1392 6.31841 53.1963 5.70763 53.1963C4.84412 53.1963 4.1333 53.1392 3.54885 53.0301C2.97492 52.9209 2.49577 52.791 2.1114 52.6352C1.72177 52.4793 1.41638 52.3442 1.19524 52.2143C0.974092 52.0948 0.779273 52.0324 0.610782 52.0324C0.50021 52.0324 0.405435 52.0948 0.315924 52.2247L0 52.0324L1.25316 49.0447Z" fill="#4D4D4D"/>
<path d="M109.72 39.1201H109.878C110.11 39.1201 110.257 39.1097 110.315 39.0942C110.373 39.0734 110.41 39.0474 110.447 39.0006C110.473 38.9539 110.494 38.9071 110.494 38.8551C110.494 38.798 110.473 38.7564 110.447 38.7096C110.42 38.6629 110.373 38.6369 110.31 38.6161C110.252 38.5953 110.115 38.5901 109.883 38.5901H109.725V39.1201H109.72ZM109.32 40.2165V38.2784H109.72C110.089 38.2784 110.305 38.2888 110.352 38.2888C110.484 38.2992 110.584 38.3251 110.657 38.3615C110.731 38.4083 110.789 38.4706 110.842 38.5538C110.889 38.6369 110.915 38.7252 110.915 38.8292C110.915 38.9643 110.868 39.0838 110.778 39.1877C110.684 39.2864 110.557 39.354 110.389 39.3799C110.447 39.4007 110.489 39.4267 110.52 39.4423C110.557 39.4683 110.605 39.5254 110.657 39.5982C110.668 39.619 110.721 39.6917 110.794 39.8372L111.026 40.2217H110.536L110.378 39.9099C110.257 39.7021 110.173 39.5618 110.099 39.5098C110.025 39.4527 109.931 39.4267 109.82 39.4267H109.72V40.2217H109.32V40.2165ZM110.152 37.7796C109.904 37.7796 109.652 37.8419 109.42 37.9614C109.188 38.0913 109.004 38.2732 108.872 38.5122C108.735 38.7408 108.667 38.985 108.667 39.2448C108.667 39.4994 108.73 39.7489 108.862 39.9827C108.993 40.2113 109.178 40.3932 109.409 40.5231C109.652 40.653 109.889 40.7153 110.152 40.7153C110.41 40.7153 110.663 40.653 110.894 40.5231C111.136 40.3932 111.31 40.2113 111.452 39.9827C111.584 39.7437 111.647 39.4994 111.647 39.2448C111.647 38.9902 111.584 38.7408 111.442 38.5122C111.31 38.2732 111.126 38.0913 110.884 37.9614C110.652 37.8419 110.41 37.7796 110.152 37.7796ZM110.152 37.421C110.468 37.421 110.773 37.4938 111.068 37.6496C111.358 37.8055 111.584 38.0342 111.753 38.3251C111.921 38.6161 112 38.9279 112 39.2396C112 39.5618 111.916 39.8632 111.753 40.1542C111.595 40.4451 111.363 40.6634 111.079 40.8296C110.784 40.9855 110.478 41.0687 110.152 41.0687C109.825 41.0687 109.52 40.9855 109.225 40.8296C108.936 40.6634 108.709 40.4451 108.551 40.1542C108.383 39.8632 108.304 39.5618 108.304 39.2396C108.304 38.9279 108.388 38.6161 108.551 38.3251C108.72 38.0342 108.951 37.8055 109.236 37.6496C109.531 37.4938 109.836 37.421 110.152 37.421Z" fill="#141515"/>
<path d="M11.3262 62.7259H15.5227V61.8582H12.3108V60.3773H15.1278V59.5095H12.3108V58.065H15.4753V57.1973H11.3262V62.7259ZM16.6916 62.7259H20.6195V61.8374H17.6762V57.1973H16.6968V62.7259H16.6916ZM21.641 62.7259H25.8375V61.8582H22.6256V60.3773H25.432V59.5095H22.6256V58.065H25.7901V57.1973H21.641V62.7259ZM29.6601 62.8246C30.65 62.8246 31.4398 62.4245 31.9927 61.9569V59.6343H29.6127V60.4864H31.0396V61.5204C30.6974 61.775 30.213 61.9413 29.6864 61.9413C28.5491 61.9413 27.7856 61.0995 27.7856 59.9668V59.946C27.7856 58.886 28.5649 57.9975 29.6022 57.9975C30.313 57.9975 30.7342 58.2261 31.166 58.5846L31.7873 57.852C31.2134 57.3688 30.6131 57.1038 29.639 57.1038C27.9541 57.1038 26.7484 58.408 26.7484 59.9616V59.972C26.7536 61.5932 27.912 62.8246 29.6601 62.8246ZM32.793 62.7259H33.8039L34.3884 61.3905H37.0316L37.595 62.7259H38.6323L36.1681 57.1609H35.2624L32.793 62.7259ZM34.7359 60.5332L35.6995 58.3196L36.6736 60.5332H34.7359ZM39.5958 62.7259H40.5699V58.7977L43.6554 62.7259H44.4821V57.1973H43.5185V61.0268L40.5173 57.1973H39.6011V62.7259H39.5958ZM47.2938 62.7259H48.2836V58.1014H50.0633V57.1973H45.5246V58.1014H47.2938V62.7259ZM53.5016 62.7259H57.4295V61.8374H54.4862V57.1973H53.5069V62.7259H53.5016ZM57.9771 62.7259H58.9881L59.562 61.3905H62.2105L62.7739 62.7259H63.8217L61.3575 57.1609H60.4413L57.9771 62.7259ZM59.9201 60.5332L60.8836 58.3196L61.8472 60.5332H59.9201ZM64.78 62.7259H65.7435V58.7769L67.4916 61.3697H67.5285L69.2976 58.7561V62.7207H70.277V57.1921H69.2292L67.5232 59.8057L65.8172 57.1921H64.7694V62.7259H64.78ZM71.7829 62.7259H72.7622V57.1973H71.7829V62.7259ZM74.2629 62.7259H75.2264V58.7977L78.3172 62.7259H79.1438V57.1973H78.1697V61.0268L75.1685 57.1973H74.2629V62.7259ZM80.0969 62.7259H81.1078L81.6817 61.3905H84.3302L84.9041 62.7259H85.9414L83.4772 57.1609H82.5716L80.0969 62.7259ZM82.0398 60.5332L83.0033 58.3196L83.9774 60.5332H82.0398ZM87.5579 62.7259H88.5477V58.1014H90.3274V57.1973H85.7834V58.1014H87.5631V62.7259H87.5579ZM91.3647 62.7259H95.5612V61.8582H92.3493V60.3773H95.1663V59.5095H92.3493V58.065H95.5243V57.1973H91.3647V62.7259ZM98.6888 62.8091C99.863 62.8091 100.69 62.1855 100.69 61.1567V61.1463C100.69 60.2214 100.068 59.8005 98.8836 59.5199C97.82 59.2757 97.562 59.0835 97.562 58.6522V58.6418C97.562 58.2781 97.8937 57.9819 98.4677 57.9819C98.9837 57.9819 99.4839 58.1742 99.9946 58.5483L100.521 57.8156C99.9472 57.3584 99.2996 57.1193 98.4834 57.1193C97.3725 57.1193 96.5774 57.7689 96.5774 58.7197V58.7405C96.5774 59.7538 97.2461 60.1019 98.4361 60.3877C99.4733 60.6267 99.705 60.8449 99.705 61.2398V61.2606C99.705 61.6711 99.3154 61.9569 98.7046 61.9569C98.0096 61.9569 97.4725 61.6919 96.9354 61.2346L96.3405 61.9309C97.025 62.5129 97.8306 62.8091 98.6888 62.8091Z" fill="#4D4D4D"/>
</svg>
