<svg width="112" height="63" viewBox="0 0 112 63" fill="none" xmlns="http://www.w3.org/2000/svg">
<path fill-rule="evenodd" clip-rule="evenodd" d="M55.3169 12.0337L53.3529 23.9067C46.7028 22.8363 42.1956 16.653 43.2856 10.0904C44.3702 3.53811 50.636 -0.909729 57.2756 0.165859C60.5349 0.685466 63.4413 2.4937 65.3316 5.17488L55.3169 12.0337Z" fill="#1A629C"/>
<path fill-rule="evenodd" clip-rule="evenodd" d="M44.1607 16.8662C43.234 14.8085 42.8918 12.4703 43.292 10.0853C43.5605 8.43293 44.1713 6.90528 45.0348 5.56989L55.3233 12.0286L44.1607 16.8662Z" fill="#3194BF"/>
<path fill-rule="evenodd" clip-rule="evenodd" d="M45.0293 5.57551C47.1038 2.36953 50.6422 0.259923 54.5754 0.0312958L55.3178 12.0394L45.0293 5.57551Z" fill="#66BCDB"/>
<path fill-rule="evenodd" clip-rule="evenodd" d="M55.3186 12.0337L54.5762 0.0255829C55.466 -0.0315739 56.3717 0.00479974 57.2773 0.160682C60.5365 0.68029 63.443 2.48852 65.3333 5.1697L55.3186 12.0337Z" fill="#8CD5EA"/>
<path fill-rule="evenodd" clip-rule="evenodd" d="M53.3545 23.9068L55.3185 12.0389C61.9581 13.1093 66.4652 19.2927 65.3858 25.8449C64.3012 32.4076 58.0354 36.845 51.3853 35.7798C48.126 35.2602 45.2196 33.452 43.3398 30.7656L53.3545 23.9068Z" fill="#3194BF"/>
<path fill-rule="evenodd" clip-rule="evenodd" d="M64.5108 19.0641C65.427 21.1269 65.7692 23.46 65.3796 25.845C65.1005 27.5077 64.5003 29.0354 63.6367 30.3656L53.3535 23.9068L64.5108 19.0641Z" fill="#66BCDB"/>
<path fill-rule="evenodd" clip-rule="evenodd" d="M63.642 30.3653C61.5675 33.5713 58.0239 35.6809 54.0959 35.9095L53.3535 23.9066L63.642 30.3653Z" fill="#8CD5EA"/>
<path fill-rule="evenodd" clip-rule="evenodd" d="M53.3545 23.9066L54.0969 35.9147C53.2071 35.9719 52.3015 35.9251 51.3853 35.7796C48.126 35.26 45.2196 33.4518 43.3398 30.7654L53.3545 23.9066Z" fill="#66BCDB"/>
<path d="M30.281 40.0665V40.5134C30.1441 40.5134 30.0125 40.5342 29.8914 40.5757C29.7703 40.6121 29.7176 40.7108 29.7176 40.8771C29.7176 40.9758 29.8282 41.2149 30.0441 41.5786C30.2652 41.9527 30.518 42.3632 30.8128 42.8412C31.1077 43.3089 31.4078 43.7921 31.7185 44.2857C32.0344 44.7794 32.2924 45.1898 32.4872 45.538L35.1251 41.5734C35.2462 41.3707 35.3357 41.2148 35.42 41.1057C35.4937 40.9862 35.5306 40.8771 35.5306 40.7784C35.5306 40.6693 35.4569 40.5965 35.32 40.5601C35.1725 40.5342 35.0409 40.5134 34.9198 40.5134V40.0665H38.8635V40.5134C38.7424 40.5134 38.6318 40.5238 38.5213 40.5498C38.4212 40.5757 38.3107 40.6329 38.1948 40.7212C38.0843 40.8148 37.9631 40.9395 37.8315 41.1161C37.6999 41.2928 37.5525 41.5162 37.3682 41.8176L33.5455 47.7567V52.1422C33.5455 52.4436 33.714 52.5891 34.0615 52.5891V53.0359H30.4969V52.5891C30.6338 52.5891 30.7444 52.5527 30.8286 52.4799C30.9234 52.4072 30.9655 52.2981 30.9655 52.1422V47.7567L26.6111 41.1057C26.511 40.9395 26.3531 40.794 26.1319 40.6849C26.0213 40.6225 25.9213 40.5757 25.8265 40.5498C25.6528 40.6069 25.4632 40.716 25.2895 40.8771L20.1031 45.3925L24.8366 51.3888C25.0315 51.633 25.2631 51.872 25.5211 52.111C25.7897 52.35 26.0477 52.5111 26.3004 52.5943V53.0411H22.1355V52.5943C22.3303 52.5943 22.4304 52.5371 22.4304 52.4228C22.4304 52.3396 22.3198 52.1578 22.1145 51.8824L18.255 47.0189L16.3647 48.6297V52.1474C16.3647 52.3033 16.4121 52.4124 16.5016 52.4851C16.5859 52.5579 16.6964 52.5943 16.8175 52.5943V53.0411H13.3003V52.5943C13.632 52.5943 13.8005 52.4488 13.8005 52.1474V40.955C13.8005 40.6641 13.632 40.5186 13.3003 40.5186V40.0717H16.8175V40.5186C16.6964 40.5186 16.5859 40.5549 16.5016 40.6277C16.4068 40.7004 16.3647 40.8096 16.3647 40.955V45.6419L21.0298 41.6201C21.2404 41.4279 21.3984 41.2616 21.5195 41.1473C21.6406 41.0174 21.7038 40.9187 21.7038 40.8355C21.7038 40.716 21.6669 40.6329 21.6037 40.5913C21.5405 40.5342 21.4563 40.5186 21.3615 40.5186V40.0717H25.5738H26.0898H30.281V40.0665ZM46.0033 50.9159C46.7142 50.9159 47.3249 50.8536 47.8567 50.7237C48.3885 50.5938 48.8203 50.3599 49.1626 50.0222C49.5048 49.6845 49.7628 49.2376 49.9418 48.6764C50.1156 48.1204 50.1998 47.4086 50.1998 46.5564C50.1998 45.6991 50.1156 44.9924 49.9418 44.4364C49.7681 43.8804 49.5048 43.4336 49.1626 43.0906C48.8203 42.7477 48.3833 42.5139 47.8567 42.3892C47.3302 42.2541 46.7194 42.1865 46.0033 42.1865H42.5124V50.9107H46.0033V50.9159ZM46.909 40.0665C47.7356 40.0665 48.4991 40.2016 49.2152 40.4614C49.926 40.7264 50.5473 41.1265 51.0739 41.6565C51.6004 42.1969 52.0111 42.862 52.3165 43.6778C52.6114 44.4988 52.7693 45.4497 52.7693 46.5564C52.7693 47.6528 52.6114 48.6141 52.3165 49.4247C52.0111 50.2404 51.6057 50.9159 51.0739 51.4511C50.5473 51.9811 49.926 52.3812 49.2152 52.641C48.5044 52.906 47.7356 53.0411 46.909 53.0411H39.4269V52.5943C39.7692 52.5943 39.9429 52.4488 39.9429 52.1474V40.955C39.9429 40.6641 39.7692 40.5186 39.4269 40.5186V40.0717H46.909V40.0665ZM65.3008 42.7373C65.3008 42.5554 65.2377 42.4151 65.106 42.3268C64.9744 42.2333 64.7532 42.1917 64.4373 42.1917H57.1448V45.2522H61.5624C61.8573 45.2522 62.089 45.2054 62.2575 45.1171C62.426 45.0236 62.5049 44.795 62.5049 44.4156H62.9104V48.2607H62.5049C62.5049 47.8866 62.4207 47.6372 62.2575 47.5281C62.089 47.4294 61.8573 47.3722 61.5624 47.3722H57.1448V50.7704H64.6743C64.8954 50.7704 65.0797 50.7133 65.2219 50.599C65.3693 50.4898 65.4325 50.334 65.4325 50.1313H65.8379V53.514H65.4325C65.4325 53.2697 65.3693 53.1295 65.2219 53.0931C65.085 53.0567 64.8954 53.0463 64.6743 53.0463H54.1646V52.5995C54.2752 52.5995 54.37 52.5631 54.4542 52.4903C54.5385 52.4176 54.5753 52.3085 54.5753 52.1526V40.9602C54.5753 40.8148 54.5385 40.7056 54.4542 40.6329C54.37 40.5601 54.2805 40.5238 54.1646 40.5238V40.0769H64.4426C64.7585 40.0769 64.9796 40.0198 65.1113 39.921C65.2429 39.8119 65.3061 39.6664 65.3061 39.4846H65.7115V42.7477H65.3008V42.7373ZM79.9017 51.2641C79.8543 51.2641 79.8069 51.2641 79.77 51.2537C79.7332 51.2433 79.6963 51.2433 79.6489 51.2433C79.5541 51.2433 79.3435 51.3368 79.0118 51.5343C78.6696 51.7369 78.2431 51.9551 77.7271 52.1994C77.2111 52.4436 76.6161 52.6566 75.9579 52.8385C75.2997 53.0203 74.6047 53.1139 73.8833 53.1139C72.9409 53.1139 72.03 52.9788 71.1612 52.719C70.2819 52.454 69.5131 52.0435 68.8444 51.4927C68.1757 50.9419 67.6492 50.2612 67.2543 49.435C66.8646 48.6141 66.6698 47.6424 66.6698 46.546C66.6698 45.46 66.8646 44.4988 67.2543 43.6674C67.6544 42.8464 68.181 42.1501 68.8444 41.5838C69.5131 41.0278 70.2819 40.6069 71.1612 40.3315C72.03 40.0457 72.9409 39.9106 73.8833 39.9106C74.6521 39.9106 75.3471 39.973 75.9684 40.1133C76.5898 40.2432 77.1373 40.3783 77.606 40.5238C78.0693 40.6797 78.4379 40.8148 78.7064 40.9447C78.9749 41.0798 79.1434 41.1473 79.1961 41.1473C79.2803 41.1473 79.333 41.1005 79.3909 41.0174C79.4488 40.9343 79.4857 40.8719 79.512 40.8251L79.8543 41.1161L78.0956 44.1039L77.8745 43.9324C77.8745 43.8752 77.864 43.8337 77.864 43.7869C77.8534 43.7298 77.8429 43.6778 77.8271 43.6154C77.8008 43.4336 77.6428 43.2517 77.3743 43.0595C77.1057 42.8672 76.774 42.7009 76.3739 42.5554C75.9737 42.41 75.5577 42.28 75.1154 42.1813C74.6732 42.0826 74.2625 42.0358 73.8833 42.0358C73.2515 42.0358 72.6513 42.1346 72.0668 42.3268C71.4929 42.5295 70.9822 42.8204 70.5557 43.1946C70.1292 43.5687 69.7869 44.0363 69.5289 44.5819C69.2814 45.1379 69.1498 45.7614 69.1498 46.4733C69.1498 47.1747 69.2814 47.8087 69.5289 48.3543C69.7869 48.905 70.1292 49.3675 70.5557 49.752C70.9822 50.1261 71.4929 50.4171 72.0668 50.6094C72.6513 50.812 73.2515 50.9003 73.8833 50.9003C74.3625 50.9003 74.8627 50.8432 75.3945 50.7185C75.921 50.599 76.4055 50.4431 76.8372 50.2508C77.2742 50.0586 77.6323 49.8507 77.9324 49.6117C78.2273 49.3727 78.3694 49.1441 78.3694 48.9362C78.3694 48.8167 78.3431 48.718 78.2852 48.6348L78.6011 48.4426L80.0807 51.0562L79.9017 51.2641ZM87.7891 42.1865C87.2152 42.1865 86.6413 42.2852 86.0779 42.4879C85.504 42.6801 84.9827 42.9607 84.5299 43.34C84.0665 43.7038 83.698 44.161 83.4084 44.7014C83.1293 45.2522 82.9819 45.8601 82.9819 46.5564C82.9819 47.2423 83.1293 47.8606 83.4084 48.401C83.698 48.9518 84.0665 49.4039 84.5299 49.7728C84.9827 50.1469 85.504 50.4327 86.0779 50.6249C86.6413 50.8276 87.2152 50.9159 87.7891 50.9159C88.3525 50.9159 88.9264 50.8224 89.5004 50.6249C90.0638 50.4327 90.585 50.1521 91.0379 49.7728C91.5012 49.4091 91.8698 48.9518 92.1594 48.401C92.449 47.8606 92.5859 47.2423 92.5859 46.5564C92.5859 45.8601 92.449 45.2522 92.1594 44.7014C91.8698 44.161 91.5012 43.7038 91.0379 43.34C90.585 42.9659 90.0638 42.6801 89.5004 42.4879C88.9317 42.2904 88.3578 42.1865 87.7891 42.1865ZM87.7891 39.921C88.6158 39.921 89.4582 40.0561 90.306 40.3315C91.1695 40.5965 91.9435 41.007 92.6491 41.5474C93.3599 42.0878 93.9338 42.7789 94.3919 43.605C94.8342 44.4364 95.0658 45.4237 95.0658 46.5564C95.0658 47.6892 94.8342 48.6764 94.3919 49.4974C93.9391 50.3288 93.3651 51.0147 92.6491 51.5602C91.9435 52.1006 91.1695 52.4903 90.306 52.7397C89.453 52.984 88.6105 53.1139 87.7891 53.1139C86.9572 53.1139 86.12 52.984 85.2618 52.7397C84.4088 52.4955 83.6242 52.1006 82.9187 51.5602C82.2131 51.0095 81.6339 50.3288 81.1864 49.4974C80.7336 48.6764 80.5124 47.6892 80.5124 46.5564C80.5124 45.4237 80.7336 44.4364 81.1864 43.605C81.6287 42.7841 82.2131 42.0878 82.9187 41.5474C83.6242 41.007 84.4088 40.5965 85.2618 40.3315C86.1253 40.0613 86.9572 39.921 87.7891 39.921ZM102.774 45.8446C103.322 45.8446 103.764 45.7978 104.128 45.7095C104.491 45.6159 104.775 45.4912 104.991 45.3249C105.196 45.1587 105.354 44.9664 105.433 44.7482C105.528 44.5196 105.57 44.2805 105.57 44.0155C105.57 43.7505 105.523 43.5115 105.433 43.2829C105.349 43.0647 105.191 42.8724 104.991 42.7061C104.78 42.5398 104.491 42.4151 104.128 42.3216C103.764 42.2281 103.322 42.1865 102.774 42.1865H98.878V45.8394H102.774V45.8446ZM103.353 40.0665C104.075 40.0665 104.733 40.1393 105.317 40.2744C105.902 40.4095 106.413 40.6381 106.829 40.9395C107.255 41.2408 107.576 41.6357 107.803 42.119C108.024 42.6126 108.134 43.205 108.134 43.9116C108.134 44.9976 107.845 45.829 107.266 46.4057C106.671 46.9825 105.886 47.367 104.896 47.5645L107.897 52.2409C107.998 52.4072 108.119 52.5059 108.266 52.5423C108.403 52.5683 108.535 52.5891 108.656 52.5891V53.0359H104.443V52.5891C104.58 52.5891 104.691 52.5631 104.796 52.5163C104.896 52.4696 104.944 52.3968 104.944 52.3137C104.944 52.2305 104.917 52.1422 104.849 52.0279C104.791 51.9292 104.701 51.7837 104.58 51.5966L102.1 47.7515H98.878V52.137C98.878 52.2929 98.9253 52.402 99.0254 52.4747C99.1202 52.5475 99.3044 52.5839 99.5519 52.5839V53.0307H95.6556V52.5839C96.0926 52.5839 96.3137 52.4384 96.3137 52.137V40.9447C96.3137 40.6537 96.0926 40.5082 95.6556 40.5082V40.0613H103.353V40.0665ZM1.25316 48.9674L1.4743 49.0973C1.4743 49.2428 1.51115 49.3727 1.56907 49.4922C1.66911 49.6948 1.885 49.8871 2.19039 50.069C2.49578 50.2612 2.84855 50.4327 3.24346 50.5782C3.64362 50.7237 4.05958 50.8432 4.49134 50.9367C4.92836 51.0302 5.32326 51.0718 5.66551 51.0718C5.92351 51.0718 6.24997 51.0458 6.6554 51.0094C7.06083 50.9731 7.46099 50.8796 7.85063 50.7548C8.24026 50.6197 8.58252 50.4327 8.86685 50.2041C9.14591 49.9754 9.29334 49.6741 9.29334 49.2895C9.29334 48.9154 9.1617 48.6297 8.89317 48.4582C8.63517 48.2763 8.29292 48.1464 7.8559 48.0581C7.4294 47.9853 6.93973 47.9282 6.39213 47.9022C5.84454 47.8762 5.28115 47.8399 4.71775 47.7931C4.14383 47.7359 3.5857 47.658 3.03284 47.5489C2.48524 47.4294 2.0061 47.2371 1.56907 46.9617C1.14258 46.6967 0.80033 46.3226 0.531797 45.8549C0.273795 45.3873 0.142167 44.7742 0.142167 44.0207C0.142167 43.5115 0.242206 43.0075 0.468616 42.5139C0.68976 42.0202 1.02675 41.589 1.46904 41.2097C1.92186 40.8355 2.49578 40.5238 3.18027 40.2848C3.8753 40.0457 4.6809 39.9262 5.61286 39.9262C6.40793 39.9262 7.10295 39.9886 7.6874 40.1289C8.27186 40.2588 8.7826 40.3939 9.20382 40.5394C9.64085 40.6952 9.98836 40.8303 10.2885 40.9602C10.5833 41.0953 10.8256 41.1629 11.0204 41.1629C11.231 41.1629 11.3837 41.1161 11.4732 41.0174L11.7417 41.2097L10.1884 44.2961L9.96731 44.1974C9.94098 43.9688 9.87253 43.7765 9.78302 43.631C9.66191 43.4284 9.46709 43.2361 9.18803 43.0439C8.90897 42.862 8.58779 42.6853 8.20868 42.5399C7.82958 42.3944 7.42941 42.2749 6.99765 42.1813C6.56063 42.0878 6.11834 42.0462 5.68131 42.0462C5.35486 42.0462 5.01261 42.0722 4.6651 42.1294C4.31232 42.1917 3.99113 42.2749 3.70154 42.3944C3.41194 42.5035 3.18554 42.6594 2.99598 42.8516C2.80117 43.0335 2.70639 43.2725 2.70639 43.5531C2.70639 43.948 2.83803 44.239 3.10656 44.4416C3.36456 44.6339 3.7068 44.7898 4.14383 44.8781C4.57032 44.9768 5.06 45.0444 5.6076 45.0807C6.1552 45.1171 6.71858 45.1535 7.28198 45.2002C7.8559 45.2574 8.41403 45.3353 8.96689 45.4652C9.51449 45.5847 9.99364 45.7874 10.4307 46.0576C10.8572 46.3226 11.1994 46.6863 11.4679 47.154C11.7259 47.6112 11.8576 48.214 11.8576 48.9518C11.8576 49.804 11.6522 50.5054 11.2363 51.0458C10.8308 51.5862 10.3095 52.0123 9.69877 52.3241C9.07746 52.6358 8.41403 52.8437 7.69794 52.9528C6.98712 53.0619 6.31841 53.1191 5.70763 53.1191C4.84412 53.1191 4.1333 53.0619 3.54885 52.9528C2.97492 52.8437 2.49577 52.7138 2.1114 52.5579C1.72177 52.402 1.41638 52.2669 1.19524 52.137C0.974092 52.0175 0.779273 51.9551 0.610782 51.9551C0.50021 51.9551 0.405435 52.0175 0.315924 52.1474L0 51.9551L1.25316 48.9674Z" fill="#4D4D4D"/>
<path d="M109.719 39.0429H109.877C110.109 39.0429 110.256 39.0325 110.314 39.0169C110.372 38.9961 110.409 38.9701 110.446 38.9234C110.472 38.8766 110.493 38.8299 110.493 38.7779C110.493 38.7207 110.472 38.6792 110.446 38.6324C110.419 38.5856 110.372 38.5597 110.309 38.5389C110.251 38.5181 110.114 38.5129 109.882 38.5129H109.724V39.0429H109.719ZM109.319 40.1393V38.2011H109.719C110.088 38.2011 110.304 38.2115 110.351 38.2115C110.483 38.2219 110.583 38.2479 110.656 38.2843C110.73 38.331 110.788 38.3934 110.841 38.4765C110.888 38.5597 110.914 38.648 110.914 38.7519C110.914 38.887 110.867 39.0065 110.777 39.1104C110.683 39.2092 110.556 39.2767 110.388 39.3027C110.446 39.3235 110.488 39.3495 110.519 39.3651C110.556 39.391 110.604 39.4482 110.656 39.5209C110.667 39.5417 110.72 39.6145 110.793 39.76L111.025 40.1445H110.535L110.377 39.8327C110.256 39.6249 110.172 39.4846 110.098 39.4326C110.025 39.3754 109.93 39.3495 109.819 39.3495H109.719V40.1445H109.319V40.1393ZM110.151 37.7023C109.903 37.7023 109.651 37.7647 109.419 37.8842C109.187 38.0141 109.003 38.1959 108.871 38.435C108.735 38.6636 108.666 38.9078 108.666 39.1676C108.666 39.4222 108.729 39.6716 108.861 39.9054C108.993 40.1341 109.177 40.3159 109.408 40.4458C109.651 40.5757 109.888 40.6381 110.151 40.6381C110.409 40.6381 110.662 40.5757 110.893 40.4458C111.135 40.3159 111.309 40.1341 111.451 39.9054C111.583 39.6664 111.646 39.4222 111.646 39.1676C111.646 38.913 111.583 38.6636 111.441 38.435C111.309 38.1959 111.125 38.0141 110.883 37.8842C110.651 37.7647 110.409 37.7023 110.151 37.7023ZM110.151 37.3438C110.467 37.3438 110.772 37.4165 111.067 37.5724C111.357 37.7283 111.583 37.9569 111.752 38.2479C111.92 38.5389 111.999 38.8506 111.999 39.1624C111.999 39.4846 111.915 39.7859 111.752 40.0769C111.594 40.3679 111.362 40.5861 111.078 40.7524C110.783 40.9083 110.477 40.9914 110.151 40.9914C109.824 40.9914 109.519 40.9083 109.224 40.7524C108.935 40.5861 108.708 40.3679 108.55 40.0769C108.382 39.7859 108.303 39.4846 108.303 39.1624C108.303 38.8506 108.387 38.5389 108.55 38.2479C108.719 37.9569 108.95 37.7283 109.235 37.5724C109.53 37.4165 109.835 37.3438 110.151 37.3438Z" fill="#141515"/>
<path d="M11.3262 62.6487H15.5227V61.7809H12.3108V60.3H15.1278V59.4323H12.3108V57.9878H15.4753V57.12H11.3262V62.6487ZM16.6916 62.6487H20.6195V61.7601H17.6762V57.12H16.6968V62.6487H16.6916ZM21.641 62.6487H25.8375V61.7809H22.6256V60.3H25.432V59.4323H22.6256V57.9878H25.7901V57.12H21.641V62.6487ZM29.6601 62.7474C30.65 62.7474 31.4398 62.3473 31.9927 61.8796V59.557H29.6127V60.4092H31.0396V61.4432C30.6974 61.6978 30.213 61.8641 29.6864 61.8641C28.5491 61.8641 27.7856 61.0223 27.7856 59.8895V59.8688C27.7856 58.8088 28.5649 57.9202 29.6022 57.9202C30.313 57.9202 30.7342 58.1489 31.166 58.5074L31.7873 57.7747C31.2134 57.2915 30.6131 57.0265 29.639 57.0265C27.9541 57.0265 26.7484 58.3307 26.7484 59.8843V59.8947C26.7536 61.5159 27.912 62.7474 29.6601 62.7474ZM32.793 62.6487H33.8039L34.3884 61.3133H37.0316L37.595 62.6487H38.6323L36.1681 57.0837H35.2624L32.793 62.6487ZM34.7359 60.4559L35.6995 58.2424L36.6736 60.4559H34.7359ZM39.5958 62.6487H40.5699V58.7204L43.6554 62.6487H44.4821V57.12H43.5185V60.9495L40.5173 57.12H39.6011V62.6487H39.5958ZM47.2938 62.6487H48.2836V58.0241H50.0633V57.12H45.5246V58.0241H47.2938V62.6487ZM53.5016 62.6487H57.4295V61.7601H54.4862V57.12H53.5069V62.6487H53.5016ZM57.9771 62.6487H58.9881L59.562 61.3133H62.2105L62.7739 62.6487H63.8217L61.3575 57.0837H60.4413L57.9771 62.6487ZM59.9201 60.4559L60.8836 58.2424L61.8472 60.4559H59.9201ZM64.78 62.6487H65.7435V58.6996L67.4916 61.2925H67.5285L69.2976 58.6789V62.6435H70.277V57.1148H69.2292L67.5232 59.7285L65.8173 57.1148H64.7694V62.6487H64.78ZM71.7829 62.6487H72.7622V57.12H71.7829V62.6487ZM74.2629 62.6487H75.2264V58.7204L78.3172 62.6487H79.1438V57.12H78.1697V60.9495L75.1685 57.12H74.2629V62.6487ZM80.0969 62.6487H81.1078L81.6817 61.3133H84.3302L84.9041 62.6487H85.9414L83.4772 57.0837H82.5716L80.0969 62.6487ZM82.0398 60.4559L83.0033 58.2424L83.9774 60.4559H82.0398ZM87.5579 62.6487H88.5477V58.0241H90.3274V57.12H85.7834V58.0241H87.5631V62.6487H87.5579ZM91.3647 62.6487H95.5612V61.7809H92.3493V60.3H95.1663V59.4323H92.3493V57.9878H95.5243V57.12H91.3647V62.6487ZM98.6888 62.7318C99.863 62.7318 100.69 62.1083 100.69 61.0794V61.0691C100.69 60.1441 100.068 59.7233 98.8836 59.4427C97.82 59.1985 97.562 59.0062 97.562 58.5749V58.5645C97.562 58.2008 97.8937 57.9046 98.4677 57.9046C98.9837 57.9046 99.4839 58.0969 99.9946 58.471L100.521 57.7384C99.9472 57.2811 99.2996 57.0421 98.4834 57.0421C97.3725 57.0421 96.5774 57.6916 96.5774 58.6425V58.6633C96.5774 59.6765 97.2461 60.0246 98.4361 60.3104C99.4733 60.5494 99.705 60.7677 99.705 61.1626V61.1834C99.705 61.5939 99.3154 61.8796 98.7046 61.8796C98.0096 61.8796 97.4725 61.6146 96.9354 61.1574L96.3405 61.8537C97.025 62.4356 97.8306 62.7318 98.6888 62.7318Z" fill="#4D4D4D"/>
</svg>
